<?xml version="1.0" encoding="UTF-8" standalone="no"?>
<!-- Creator: fig2dev Version 3.2.6a -->

<!-- CreationDate: 2022-09-07 09:58:42 -->

<!-- Magnification: 1.05 -->

<svg
   width="793.05176pt"
   height="260.87396pt"
   viewBox="5489 719 12585.519 4139.9998"
   version="1.1"
   id="svg16"
   sodipodi:docname="logo-big.svg"
   inkscape:version="1.2.1 (9c6d41e, 2022-07-14)"
   inkscape:export-filename="logo-big.png"
   inkscape:export-xdpi="96"
   inkscape:export-ydpi="96"
   xmlns:inkscape="http://www.inkscape.org/namespaces/inkscape"
   xmlns:sodipodi="http://sodipodi.sourceforge.net/DTD/sodipodi-0.dtd"
   xmlns="http://www.w3.org/2000/svg"
   xmlns:svg="http://www.w3.org/2000/svg"
   xmlns:rdf="http://www.w3.org/1999/02/22-rdf-syntax-ns#"
   xmlns:cc="http://creativecommons.org/ns#"
   xmlns:dc="http://purl.org/dc/elements/1.1/">
  <metadata
     id="metadata22">
    <rdf:RDF>
      <cc:Work
         rdf:about="">
        <dc:format>image/svg+xml</dc:format>
        <dc:type
           rdf:resource="http://purl.org/dc/dcmitype/StillImage" />
        <dc:title />
      </cc:Work>
    </rdf:RDF>
  </metadata>
  <defs
     id="defs20" />
  <sodipodi:namedview
     pagecolor="#ffffff"
     bordercolor="#666666"
     borderopacity="1"
     objecttolerance="10"
     gridtolerance="10"
     guidetolerance="10"
     inkscape:pageopacity="1"
     inkscape:pageshadow="2"
     inkscape:window-width="1920"
     inkscape:window-height="1147"
     id="namedview18"
     showgrid="false"
     inkscape:zoom="0.67816092"
     inkscape:cx="92.161017"
     inkscape:cy="168.83898"
     inkscape:window-x="1366"
     inkscape:window-y="31"
     inkscape:window-maximized="1"
     inkscape:current-layer="svg16"
     inkscape:showpageshadow="2"
     inkscape:pagecheckerboard="0"
     inkscape:deskcolor="#d1d1d1"
     inkscape:document-units="pt" />
  <text
     xml:space="preserve"
     style="font-style:normal;font-variant:normal;font-weight:normal;font-stretch:normal;font-size:2285.24px;line-height:100%;font-family:'GOST type B';-inkscape-font-specification:'GOST type B';letter-spacing:0px;word-spacing:0px;fill:#008080;fill-opacity:1;stroke:none;stroke-width:11.9023px;stroke-linecap:butt;stroke-linejoin:miter;stroke-opacity:1"
     x="5807.4766"
     y="2437.9829"
     id="text26"><tspan
       sodipodi:role="line"
       id="tspan24"
       x="5807.4766"
       y="2437.9829"
       style="font-size:2285.24px;fill:#008080;stroke-width:11.9023px">WFB-ng</tspan><tspan
       sodipodi:role="line"
       x="5807.4766"
       y="4723.2227"
       style="font-size:2285.24px;fill:#008080;stroke-width:11.9023px"
       id="tspan28">DataLink</tspan></text>
  <g
     fill="none"
     id="g28"
     transform="matrix(1.0726947,0,0,1.0726947,8125.3361,-436.134)">
    <!-- Line -->
    <rect
       x="5490"
       y="1125"
       width="3735"
       height="3735"
       rx="105"
       fill="#ffffff"
       id="rect16" />
    <!-- Line -->
    <polygon
       points="8656,2003 8655,2010 8655,2017 8655,2026 8655,2036 8656,2047 8658,2061 8660,2076 8664,2094 8668,2115 8674,2138 8680,2163 8687,2191 8696,2222 8705,2256 8716,2293 8722,2315 8729,2338 8736,2362 8743,2387 8751,2413 8759,2441 8768,2470 8777,2500 8786,2532 8796,2564 8805,2597 8815,2631 8825,2666 8835,2701 8846,2736 8856,2771 8866,2806 8876,2841 8885,2875 8894,2909 8903,2942 8912,2974 8920,3005 8928,3034 8936,3063 8942,3091 8949,3117 8955,3142 8960,3166 8965,3189 8973,3224 8979,3257 8984,3288 8988,3317 8990,3344 8992,3369 8993,3392 8993,3413 8992,3432 8990,3450 8987,3465 8984,3479 8980,3491 8976,3502 8971,3511 8967,3519 8962,3527 8957,3534 8947,3546 8938,3558 8928,3569 8917,3580 8907,3589 8897,3597 8888,3604 8880,3608 8874,3610 8869,3611 8864,3609 8860,3604 8858,3596 8856,3586 8854,3574 8852,3561 8850,3548 8846,3534 8843,3525 8840,3516 8835,3505 8830,3494 8824,3482 8817,3469 8809,3455 8801,3441 8792,3426 8783,3411 8774,3395 8764,3379 8757,3367 8750,3355 8743,3342 8735,3329 8727,3314 8718,3299 8709,3283 8699,3266 8690,3249 8680,3232 8670,3215 8660,3197 8650,3180 8640,3163 8630,3146 8621,3130 8612,3114 8602,3098 8593,3082 8584,3066 8574,3049 8564,3033 8554,3016 8543,2998 8533,2980 8522,2963 8511,2945 8501,2927 8490,2910 8480,2894 8470,2878 8461,2862 8451,2848 8443,2834 8434,2820 8426,2808 8416,2792 8406,2776 8396,2761 8386,2745 8376,2730 8367,2715 8357,2701 8348,2687 8339,2674 8331,2662 8323,2651 8316,2641 8309,2632 8303,2624 8295,2613 8287,2603 8279,2594 8271,2585 8264,2576 8256,2569 8249,2562 8243,2555 8237,2550 8231,2544 8223,2538 8215,2531 8207,2524 8197,2517 8188,2511 8179,2505 8170,2500 8162,2495 8153,2491 8143,2487 8133,2483 8123,2480 8112,2477 8102,2474 8093,2472 8085,2471 8074,2469 8063,2468 8051,2468 8041,2467 8031,2467 8023,2467 8014,2467 8006,2467 7997,2466 7989,2465 7981,2462 7974,2460 7967,2455 7960,2450 7951,2443 7943,2436 7936,2429 7929,2422 7922,2415 7914,2407 7907,2399 7900,2391 7894,2384 7890,2377 7887,2369 7885,2362 7883,2353 7882,2344 7882,2336 7882,2328 7882,2319 7882,2310 7881,2299 7881,2288 7880,2277 7878,2266 7877,2257 7875,2248 7873,2238 7870,2228 7866,2217 7863,2207 7859,2198 7855,2189 7850,2180 7845,2171 7839,2162 7833,2153 7826,2143 7819,2135 7812,2127 7806,2119 7800,2113 7795,2107 7788,2101 7781,2094 7773,2086 7765,2079 7756,2071 7746,2063 7736,2055 7726,2047 7717,2041 7708,2034 7698,2027 7687,2019 7675,2011 7662,2002 7649,1993 7634,1983 7619,1974 7604,1964 7589,1954 7573,1944 7558,1934 7542,1924 7529,1916 7516,1907 7502,1899 7487,1889 7472,1880 7456,1870 7439,1860 7422,1849 7405,1839 7387,1828 7369,1817 7351,1807 7334,1796 7317,1786 7300,1776 7284,1766 7268,1757 7252,1748 7236,1738 7220,1729 7204,1720 7187,1710 7170,1700 7153,1690 7135,1680 7118,1670 7101,1660 7084,1651 7067,1641 7051,1632 7036,1623 7021,1615 7008,1607 6995,1600 6983,1593 6971,1586 6955,1576 6939,1567 6924,1558 6909,1549 6895,1541 6881,1533 6868,1526 6856,1520 6845,1515 6834,1510 6825,1507 6816,1504 6802,1500 6789,1498 6776,1496 6764,1494 6754,1492 6746,1490 6741,1486 6739,1481 6740,1476 6742,1470 6747,1462 6753,1453 6761,1443 6771,1433 6781,1422 6793,1412 6804,1403 6817,1393 6824,1388 6831,1383 6840,1379 6849,1374 6860,1370 6872,1366 6886,1363 6901,1360 6919,1358 6938,1357 6959,1357 6982,1358 7007,1360 7034,1362 7063,1366 7094,1371 7127,1377 7163,1385 7185,1390 7209,1395 7234,1401 7260,1408 7288,1414 7317,1422 7346,1430 7377,1438 7409,1447 7442,1456 7476,1465 7510,1474 7545,1484 7580,1494 7615,1504 7650,1515 7685,1525 7720,1535 7754,1545 7787,1554 7819,1564 7850,1573 7881,1582 7910,1591 7938,1599 7964,1607 7989,1614 8013,1621 8036,1628 8058,1634 8095,1645 8129,1654 8159,1663 8187,1670 8213,1676 8236,1682 8256,1686 8274,1690 8290,1692 8303,1694 8315,1695 8325,1696 8333,1695 8340,1695 8347,1694 8354,1693 8364,1690 8376,1687 8388,1684 8401,1681 8415,1676 8428,1672 8442,1668 8455,1663 8466,1659 8478,1655 8489,1651 8500,1646 8512,1642 8523,1638 8535,1633 8546,1629 8557,1626 8567,1622 8576,1620 8585,1618 8596,1616 8607,1615 8618,1614 8629,1614 8640,1615 8649,1616 8657,1618 8664,1620 8672,1623 8680,1627 8687,1632 8693,1637 8698,1642 8703,1647 8708,1652 8713,1657 8718,1663 8723,1670 8727,1678 8730,1686 8732,1693 8734,1701 8735,1710 8736,1721 8736,1732 8735,1743 8734,1754 8732,1765 8730,1774 8728,1783 8725,1793 8721,1804 8717,1815 8713,1827 8709,1838 8704,1850 8700,1861 8696,1872 8692,1884 8687,1895 8683,1908 8678,1922 8674,1935 8670,1949 8666,1962 8663,1974 8660,1986 8658,1997 "
       fill="#008f00"
       stroke="#008f00"
       stroke-width="8px"
       stroke-linejoin="bevel"
       id="polygon18" />
    <!-- Arc -->
    <path
       d="M 6300,4500 A 461,461 0 0 0 5850,4050"
       stroke="#008f00"
       stroke-width="285px"
       stroke-linecap="round"
       id="path20" />
    <!-- Arc -->
    <path
       d="M 6975,4500 A 1120,1120 0 0 0 5850,3375"
       stroke="#008f00"
       stroke-width="285px"
       stroke-linecap="round"
       id="path22" />
    <!-- Arc -->
    <path
       d="M 7650,4500 A 1799,1799 0 0 0 5850,2700"
       stroke="#008f00"
       stroke-width="285px"
       stroke-linecap="round"
       id="path24" />
    <!-- Arc -->
    <path
       d="M 8325,4500 A 2479,2479 0 0 0 5850,2025"
       stroke="#008f00"
       stroke-width="285px"
       stroke-linecap="round"
       id="path26" />
  </g>
</svg>
